<svg xmlns="http://www.w3.org/2000/svg" width="772" height="250" viewBox="0 0 772 250"><g fill="none" stroke-width="1.51"><path fill="#3884BB" stroke="#3884BB" d="M774 244l-19 55 23 24z"/><path fill="#AB6A7F" stroke="#AB6A7F" d="M796-65L768 4l51 1z"/><path fill="#ACB5B2" stroke="#ACB5B2" d="M765 102l23 31 2-54z"/><path fill="#B47F84" stroke="#B47F84" d="M768 4l35 45 16-44z"/><path fill="#A46E84" stroke="#A46E84" d="M723-40l45 44 28-69z"/><path fill="#B2908C" stroke="#B2908C" d="M768 4l-23 38 58 7z"/><path fill="#98B5AD" stroke="#98B5AD" d="M742 153l50 51 13-37z"/><path fill="#A3BAB2" stroke="#A3BAB2" d="M788 133l-46 20 63 14z"/><path fill="#B19E97" stroke="#B19E97" d="M745 42l45 37 13-30z"/><path fill="#67A9B2" stroke="#67A9B2" d="M740 236l34 8 18-40z"/><path fill="#83B5B1" stroke="#83B5B1" d="M742 153l-2 83 52-32z"/><path fill="#B1B29F" stroke="#B1B29F" d="M745 42l-18 32 38 28z"/><path fill="#AEACA2" stroke="#AEACA2" d="M745 42l20 60 25-23z"/><path fill="#88BEAD" stroke="#88BEAD" d="M707 205l33 31 2-83z"/><path fill="#A7C0BE" stroke="#A7C0BE" d="M765 102l-23 51 46-20z"/><path fill="#4C9DB5" stroke="#4C9DB5" d="M740 236l15 63 19-55z"/><path fill="#B2817F" stroke="#B2817F" d="M723-40l5 47 40-3z"/><path fill="#52A4B2" stroke="#52A4B2" d="M740 236h-16l31 63z"/><path fill="#B58F85" stroke="#B58F85" d="M728 7l17 35 23-38z"/><path fill="#ADC3B5" stroke="#ADC3B5" d="M727 74l15 79 23-51z"/><path fill="#70B7AC" stroke="#70B7AC" d="M707 205l17 31h16z"/><path fill="#B2CBB1" stroke="#B2CBB1" d="M727 74l-44 28 59 51z"/><path fill="#55A6B1" stroke="#55A6B1" d="M724 236l-20 5 51 58z"/><path fill="#4495B8" stroke="#4495B8" d="M704 241v76l51-18z"/><path fill="#99C9A8" stroke="#99C9A8" d="M686 184l21 21 35-52z"/><path fill="#BBA385" stroke="#BBA385" d="M707 7l-25 34 63 1z"/><path fill="#B7B393" stroke="#B7B393" d="M686 61l41 13 18-32z"/><path fill="#BAB18C" stroke="#BAB18C" d="M682 41l4 20 59-19z"/><path fill="#B89683" stroke="#B89683" d="M728 7h-21l38 35z"/><path fill="#B6887C" stroke="#B6887C" d="M723-40L707 7h21z"/><path fill="#ACD3AD" stroke="#ACD3AD" d="M683 102l3 82 56-31z"/><path fill="#70BBAB" stroke="#70BBAB" d="M707 205l-3 36 20-5z"/><path fill="#B7C59B" stroke="#B7C59B" d="M686 61l-3 41 44-28z"/><path fill="#58AAAF" stroke="#58AAAF" d="M648 256l56 61v-76z"/><path fill="#B98F79" stroke="#B98F79" d="M661 3l46 4 16-47z"/><path fill="#B2877A" stroke="#B2877A" d="M665-67l-4 70 62-43z"/><path fill="#BCE3B2" stroke="#BCE3B2" d="M649 105l-17 59 51-62z"/><path fill="#B1DEA6" stroke="#B1DEA6" d="M683 102l-51 62 54 20z"/><path fill="#79C3A8" stroke="#79C3A8" d="M654 221l50 20 3-36z"/><path fill="#8BCCA7" stroke="#8BCCA7" d="M686 184l-32 37 53-16z"/><path fill="#BFA37B" stroke="#BFA37B" d="M661 3l21 38 25-34z"/><path fill="#6DC4A5" stroke="#6DC4A5" d="M654 221l-6 35 56-15z"/><path fill="#BE9476" stroke="#BE9476" d="M623-4l38 7 4-70z"/><path fill="#C3AE7C" stroke="#C3AE7C" d="M661 3l-18 27 39 11z"/><path fill="#96D3A4" stroke="#96D3A4" d="M634 184l20 37 32-37z"/><path fill="#A8DAA1" stroke="#A8DAA1" d="M632 164l2 20h52z"/><path fill="#BFC189" stroke="#BFC189" d="M682 41l-47 18 51 2z"/><path fill="#BAD39D" stroke="#BAD39D" d="M649 105l34-3 3-41z"/><path fill="#C0CF94" stroke="#C0CF94" d="M635 59l14 46 37-44z"/><path fill="#C4BC84" stroke="#C4BC84" d="M643 30l-8 29 47-18z"/><path fill="#C1E5AC" stroke="#C1E5AC" d="M607 144l25 20 17-59z"/><path fill="#95D3A5" stroke="#95D3A5" d="M634 184l-2 26 22 11z"/><path fill="#C9A676" stroke="#C9A676" d="M623-4l20 34 18-27z"/><path fill="#76C7A5" stroke="#76C7A5" d="M632 210l-9 54 25-8z"/><path fill="#C8D89A" stroke="#C8D89A" d="M635 59l-41 35 55 11z"/><path fill="#7FCBA5" stroke="#7FCBA5" d="M632 210l16 46 6-35z"/><path fill="#C9E5AC" stroke="#C9E5AC" d="M594 94l13 50 42-39z"/><path fill="#CBC285" stroke="#CBC285" d="M601 53l34 6 8-29z"/><path fill="#CEB47C" stroke="#CEB47C" d="M623-4l-22 57 42-23z"/><path fill="#CED190" stroke="#CED190" d="M601 53l-7 41 41-35z"/><path fill="#85CDA5" stroke="#85CDA5" d="M569 242l54 22 9-54z"/><path fill="#9CD6A4" stroke="#9CD6A4" d="M580 198l-11 44 63-32z"/><path fill="#A4D9A4" stroke="#A4D9A4" d="M580 198l52 12 2-26z"/><path fill="#BCE39F" stroke="#BCE39F" d="M607 144l-27 54 52-34z"/><path fill="#B0DEA1" stroke="#B0DEA1" d="M632 164l-52 34 54-14z"/><path fill="#DABA7C" stroke="#DABA7C" d="M577-21l-19 68 43 6z"/><path fill="#78B9AD" stroke="#78B9AD" d="M569 242l42 63 12-41z"/><path fill="#D4AC75" stroke="#D4AC75" d="M577-21l24 74 22-57z"/><path fill="#C2E69F" stroke="#C2E69F" d="M556 172l24 26 27-54z"/><path fill="#D1EAAE" stroke="#D1EAAE" d="M594 94l-31 23 44 27z"/><path fill="#7BB0B1" stroke="#7BB0B1" d="M569 242l-16 72 58-9z"/><path fill="#D0ECA8" stroke="#D0ECA8" d="M563 117l-7 55 51-28z"/><path fill="#D5DB96" stroke="#D5DB96" d="M559 93l35 1 7-41z"/><path fill="#DAD48E" stroke="#DAD48E" d="M558 47l1 46 42-40z"/><path fill="#D7E6A3" stroke="#D7E6A3" d="M559 93l4 24 31-23z"/><path fill="#89B4B0" stroke="#89B4B0" d="M540 239l-9 72 22 3z"/><path fill="#DFDA8F" stroke="#DFDA8F" d="M558 47l-20 23 21 23z"/><path fill="#8CC3AA" stroke="#8CC3AA" d="M540 239l13 75 16-72z"/><path fill="#E2AE71" stroke="#E2AE71" d="M506-15l52 62 19-68z"/><path fill="#BEE4A1" stroke="#BEE4A1" d="M556 172l-43 33 67-7z"/><path fill="#AEDEA2" stroke="#AEDEA2" d="M513 205l27 34 40-41z"/><path fill="#9FD7A4" stroke="#9FD7A4" d="M540 239l29 3 11-44z"/><path fill="#E9BC75" stroke="#E9BC75" d="M506-15l-7 41 59 21z"/><path fill="#DCF0AB" stroke="#DCF0AB" d="M520 115l36 57 7-55z"/><path fill="#93BFAC" stroke="#93BFAC" d="M494 280l37 31 9-72z"/><path fill="#DDF1A1" stroke="#DDF1A1" d="M520 115l-20 55 56 2z"/><path fill="#DFECA6" stroke="#DFECA6" d="M559 93l-39 22 43 2z"/><path fill="#E2E79C" stroke="#E2E79C" d="M538 70l-18 45 39-22z"/><path fill="#E6CF82" stroke="#E6CF82" d="M499 26l39 44 20-23z"/><path fill="#CDEA9E" stroke="#CDEA9E" d="M500 170l13 35 43-33z"/><path fill="#ECD180" stroke="#ECD180" d="M499 26l-5 19 44 25z"/><path fill="#E9E999" stroke="#E9E999" d="M487 89l33 26 18-45z"/><path fill="#A3D8A1" stroke="#A3D8A1" d="M513 205l-19 75 46-41z"/><path fill="#ECDE8B" stroke="#ECDE8B" d="M494 45l-7 44 51-19z"/><path fill="#B2DEA0" stroke="#B2DEA0" d="M482 205l12 75 19-75z"/><path fill="#EAF79E" stroke="#EAF79E" d="M461 134l5 24 34 12z"/><path fill="#EAF7A5" stroke="#EAF7A5" d="M461 134l39 36 20-55z"/><path fill="#F0F5A5" stroke="#F0F5A5" d="M487 89l-26 45 59-19z"/><path fill="#F1B66E" stroke="#F1B66E" d="M465 7l34 19 7-41z"/><path fill="#CCEA9E" stroke="#CCEA9E" d="M500 170l-18 35h31z"/><path fill="#ACD9A4" stroke="#ACD9A4" d="M482 205l-60 61 72 14z"/><path fill="#EBAB6F" stroke="#EBAB6F" d="M496-36L465 7l41-22z"/><path fill="#DCF09A" stroke="#DCF09A" d="M466 158l16 47 18-35z"/><path fill="#F3C576" stroke="#F3C576" d="M465 7l29 38 5-19z"/><path fill="#DAF09E" stroke="#DAF09E" d="M466 158l-16 34 32 13z"/><path fill="#F5E58F" stroke="#F5E58F" d="M417 84l70 5 7-44z"/><path fill="#F0AD72" stroke="#F0AD72" d="M420-10l45 17 31-43z"/><path fill="#C2E5A5" stroke="#C2E5A5" d="M450 192l-28 74 60-61z"/><path fill="#F7C579" stroke="#F7C579" d="M465 7l-49 11 78 27z"/><path fill="#FAD787" stroke="#FAD787" d="M416 18l1 66 77-39z"/><path fill="#F6F3A3" stroke="#F6F3A3" d="M417 84l44 50 26-45z"/><path fill="#BAE2AA" stroke="#BAE2AA" d="M406 248l16 18 28-74z"/><path fill="#EFF9A6" stroke="#EFF9A6" d="M461 134l-12 12 17 12z"/><path fill="#E9F79E" stroke="#E9F79E" d="M449 146l1 46 16-34z"/><path fill="#E7F5A1" stroke="#E7F5A1" d="M449 146l-32 29 33 17z"/><path fill="#F8FBB2" stroke="#F8FBB2" d="M417 84l32 62 12-12z"/><path fill="#FAB876" stroke="#FAB876" d="M420-10l-4 28 49-11z"/><path fill="#FBFDB7" stroke="#FBFDB7" d="M417 84l-18 55 50 7z"/><path fill="#CCEAAE" stroke="#CCEAAE" d="M381 221l25 27 11-73z"/><path fill="#D1ECAA" stroke="#D1ECAA" d="M417 175l-11 73 44-56z"/><path fill="#F0F9A6" stroke="#F0F9A6" d="M399 159l18 16 32-29z"/><path fill="#F4FBAE" stroke="#F4FBAE" d="M399 139v20l50-13z"/><path fill="#FFD38D" stroke="#FFD38D" d="M372 17l-6 61 50-60z"/><path fill="#FEE095" stroke="#FEE095" d="M416 18l-50 60 51 6z"/><path fill="#FEF5AE" stroke="#FEF5AE" d="M366 78l33 61 18-55z"/><path fill="#F7AE80" stroke="#F7AE80" d="M382-48l8 51 30-13z"/><path fill="#FDB87B" stroke="#FDB87B" d="M390 3l26 15 4-28z"/><path fill="#AED0B6" stroke="#AED0B6" d="M406 248l-22 36 38-18z"/><path fill="#EEF8AB" stroke="#EEF8AB" d="M399 159l-41 19 59-3z"/><path fill="#E0F2AF" stroke="#E0F2AF" d="M358 178l23 43 36-46z"/><path fill="#FFBF81" stroke="#FFBF81" d="M390 3l-18 14 44 1z"/><path fill="#FFF7B3" stroke="#FFF7B3" d="M366 78l-19 39 52 22z"/><path fill="#F7AB80" stroke="#F7AB80" d="M382-48l-21 31 29 20z"/><path fill="#AFCDBA" stroke="#AFCDBA" d="M360 277l24 7 22-36z"/><path fill="#B7DDB2" stroke="#B7DDB2" d="M381 221l-21 56 46-29z"/><path fill="#F5FBAF" stroke="#F5FBAF" d="M358 178l41-19v-20z"/><path fill="#F9FAB0" stroke="#F9FAB0" d="M347 117l11 61 41-39z"/><path fill="#FFD68B" stroke="#FFD68B" d="M326 54l40 24 6-61z"/><path fill="#DAECA9" stroke="#DAECA9" d="M358 178l-15 21 38 22z"/><path fill="#FFB57C" stroke="#FFB57C" d="M361-17l11 34 18-14z"/><path fill="#C2E1AB" stroke="#C2E1AB" d="M343 199l17 78 21-56z"/><path fill="#BDD9A2" stroke="#BDD9A2" d="M343 199l-61 47 78 31z"/><path fill="#FFBE7C" stroke="#FFBE7C" d="M361-17l-35 71 46-37z"/><path fill="#FFB871" stroke="#FFB871" d="M307-32l-19 68 38 18z"/><path fill="#F8F3A4" stroke="#F8F3A4" d="M347 117l-65 31 76 30z"/><path fill="#B2C2A9" stroke="#B2C2A9" d="M282 246l27 43 51-12z"/><path fill="#FEAF70" stroke="#FEAF70" d="M307-32l19 86 35-71z"/><path fill="#FFEEA3" stroke="#FFEEA3" d="M322 100l25 17 19-39z"/><path fill="#FFE394" stroke="#FFE394" d="M326 54l-4 46 44-22z"/><path fill="#C8DA9B" stroke="#C8DA9B" d="M280 235l2 11 61-47z"/><path fill="#EBEE9D" stroke="#EBEE9D" d="M282 148l61 51 15-21z"/><path fill="#FFF2AA" stroke="#FFF2AA" d="M322 100l-40 48 65-31z"/><path fill="#DFE499" stroke="#DFE499" d="M282 148l-2 87 63-36z"/><path fill="#FFE08E" stroke="#FFE08E" d="M296 79l26 21 4-46z"/><path fill="#FFEDA2" stroke="#FFEDA2" d="M273 109l9 39 40-48z"/><path fill="#FFD280" stroke="#FFD280" d="M288 36l8 43 30-25z"/><path fill="#FFE694" stroke="#FFE694" d="M296 79l-23 30 49-9z"/><path fill="#E3DC90" stroke="#E3DC90" d="M232 184l48 51 2-87z"/><path fill="#F79D63" stroke="#F79D63" d="M272-39l-19 11 35 64z"/><path fill="#F7A168" stroke="#F7A168" d="M272-39l16 75 19-68z"/><path fill="#B1B8A1" stroke="#B1B8A1" d="M282 246l-33 43h60z"/><path fill="#FECE7B" stroke="#FECE7B" d="M288 36l-30 25 38 18z"/><path fill="#D0D18F" stroke="#D0D18F" d="M232 184l14 51h34z"/><path fill="#FDAE66" stroke="#FDAE66" d="M253-28l-5 79 40-15z"/><path fill="#FEDC87" stroke="#FEDC87" d="M258 61l15 48 23-30z"/><path fill="#D7CF8B" stroke="#D7CF8B" d="M232 184l-6 21 20 30z"/><path fill="#FCA25F" stroke="#FCA25F" d="M211 16l37 35 5-79z"/><path fill="#B8BC97" stroke="#B8BC97" d="M237 248l12 41 33-43z"/><path fill="#FEC473" stroke="#FEC473" d="M248 51l10 10 30-25z"/><path fill="#C1CE94" stroke="#C1CE94" d="M280 235h-34l36 11z"/><path fill="#BECA91" stroke="#BECA91" d="M246 235l-9 13 45-2z"/><path fill="#FDE699" stroke="#FDE699" d="M273 109l-45 33 54 6z"/><path fill="#F5E08A" stroke="#F5E08A" d="M228 142l4 42 50-36z"/><path fill="#FED783" stroke="#FED783" d="M258 61l-34 27 49 21z"/><path fill="#FFDE93" stroke="#FFDE93" d="M224 88l4 54 45-33z"/><path fill="#FFD98F" stroke="#FFD98F" d="M224 88l-19 25 23 29z"/><path fill="#F89358" stroke="#F89358" d="M207 1l4 15 42-44z"/><path fill="#FEC977" stroke="#FEC977" d="M248 51l-24 37 34-27z"/><path fill="#F3D983" stroke="#F3D983" d="M228 142l-12 32 16 10z"/><path fill="#B8B692" stroke="#B8B692" d="M237 248l-25 3 37 38z"/><path fill="#EF855A" stroke="#EF855A" d="M184-54l23 55 46-29z"/><path fill="#FEBC6C" stroke="#FEBC6C" d="M211 16l13 72 24-37z"/><path fill="#C6C48A" stroke="#C6C48A" d="M226 205l-14 46 25-3z"/><path fill="#C9C98C" stroke="#C9C98C" d="M226 205l11 43 9-13z"/><path fill="#FDAF62" stroke="#FDAF62" d="M211 16l-36 7 49 65z"/><path fill="#E5D386" stroke="#E5D386" d="M216 174l10 31 6-21z"/><path fill="#C9BB81" stroke="#C9BB81" d="M173 197l1 50 38 4z"/><path fill="#FDB86B" stroke="#FDB86B" d="M175 23l-29 67 78-2z"/><path fill="#D2C584" stroke="#D2C584" d="M173 197l39 54 14-46z"/><path fill="#FAD586" stroke="#FAD586" d="M166 125l50 49 12-32z"/><path fill="#FFD78E" stroke="#FFD78E" d="M205 113l-39 12 62 17z"/><path fill="#F9CF80" stroke="#F9CF80" d="M166 125l-8 27 58 22z"/><path fill="#E3CD82" stroke="#E3CD82" d="M216 174l-43 23 53 8z"/><path fill="#FFCB7D" stroke="#FFCB7D" d="M146 90l59 23 19-25z"/><path fill="#EC7955" stroke="#EC7955" d="M184-54l-28 16 51 39z"/><path fill="#EECB7B" stroke="#EECB7B" d="M158 152l15 45 43-23z"/><path fill="#F17C51" stroke="#F17C51" d="M156-38l-8 22 59 17z"/><path fill="#BBAC88" stroke="#BBAC88" d="M174 247l8 39 30-35z"/><path fill="#FA9756" stroke="#FA9756" d="M207 1l-32 22 36-7z"/><path fill="#FFC982" stroke="#FFC982" d="M146 90l20 35 39-12z"/><path fill="#F9884E" stroke="#F9884E" d="M148-16l27 39 32-22z"/><path fill="#CCB47D" stroke="#CCB47D" d="M173 197l-44 41 45 9z"/><path fill="#FCA861" stroke="#FCA861" d="M123 67l23 23 29-67z"/><path fill="#B79A87" stroke="#B79A87" d="M174 247l-50 40 58-1z"/><path fill="#BDA17F" stroke="#BDA17F" d="M129 238l-5 49 50-40z"/><path fill="#F8814B" stroke="#F8814B" d="M148-16l-37 32 64 7z"/><path fill="#FA9454" stroke="#FA9454" d="M111 16l12 51 52-44z"/><path fill="#F1C074" stroke="#F1C074" d="M158 152l-56 8 71 37z"/><path fill="#DFB577" stroke="#DFB577" d="M102 160l27 78 44-41z"/><path fill="#D9AB73" stroke="#D9AB73" d="M102 160l-5 68 32 10z"/><path fill="#FDC37F" stroke="#FDC37F" d="M96 135l62 17 8-27z"/><path fill="#FFC080" stroke="#FFC080" d="M146 90l-50 45 70-10z"/><path fill="#F9BB76" stroke="#F9BB76" d="M96 135l6 25 56-8z"/><path fill="#F26E47" stroke="#F26E47" d="M96-19l15 35 37-32z"/><path fill="#FEB472" stroke="#FEB472" d="M123 67l-27 68 50-45z"/><path fill="#DCA872" stroke="#DCA872" d="M72 211l25 17 5-68z"/><path fill="#FCA968" stroke="#FCA968" d="M82 57l14 78 27-68z"/><path fill="#F98E52" stroke="#F98E52" d="M111 16L80 41l43 26z"/><path fill="#F99558" stroke="#F99558" d="M80 41l2 16 41 10z"/><path fill="#BD977A" stroke="#BD977A" d="M86 248l38 39 5-49z"/><path fill="#C6A073" stroke="#C6A073" d="M97 228l-11 20 43-10z"/><path fill="#B5837F" stroke="#B5837F" d="M86 248l1 54 37-15z"/><path fill="#FAA871" stroke="#FAA871" d="M82 57l-38 45 52 33z"/><path fill="#F8B575" stroke="#F8B575" d="M96 135l-5 9 11 16z"/><path fill="#F16945" stroke="#F16945" d="M96-19L65 2l46 14z"/><path fill="#F4784A" stroke="#F4784A" d="M65 2l15 39 31-25z"/><path fill="#F6B474" stroke="#F6B474" d="M91 144l-9 3 20 13z"/><path fill="#ECAE6F" stroke="#ECAE6F" d="M82 147l-10 64 30-51z"/><path fill="#F59C67" stroke="#F59C67" d="M40 76l4 26 38-45z"/><path fill="#B17F7F" stroke="#B17F7F" d="M86 248l-64 27 65 27z"/><path fill="#FBB27F" stroke="#FBB27F" d="M44 102l38 45 14-12z"/><path fill="#E4564A" stroke="#E4564A" d="M62-65l3 67 31-21z"/><path fill="#C99F74" stroke="#C99F74" d="M72 211l14 37 11-20z"/><path fill="#E6A970" stroke="#E6A970" d="M24 168l48 43 10-64z"/><path fill="#F9B477" stroke="#F9B477" d="M82 147l9-3 5-9z"/><path fill="#E0504C" stroke="#E0504C" d="M62-65L17-17 65 2z"/><path fill="#BB9676" stroke="#BB9676" d="M72 211l-50 64 64-27z"/><path fill="#BC9277" stroke="#BC9277" d="M4 224l18 51 50-64z"/><path fill="#F0764F" stroke="#F0764F" d="M65 2L25 33l55 8z"/><path fill="#F3AB7B" stroke="#F3AB7B" d="M44 102l-20 66 58-21z"/><path fill="#F5915B" stroke="#F5915B" d="M80 41L40 76l42-19z"/><path fill="#F18859" stroke="#F18859" d="M25 33l15 43 40-35z"/><path fill="#D29C76" stroke="#D29C76" d="M24 168L4 224l68-13z"/><path fill="#EFA67E" stroke="#EFA67E" d="M-2 143l26 25 20-66z"/><path fill="#EA6149" stroke="#EA6149" d="M17-17l8 50L65 2z"/><path fill="#F29C70" stroke="#F29C70" d="M40 76L-1 95l45 7z"/><path fill="#F1A17D" stroke="#F1A17D" d="M-1 95l-1 48 46-41z"/><path fill="#EE8D64" stroke="#EE8D64" d="M25 33L-1 95l41-19z"/><path fill="#C79276" stroke="#C79276" d="M-23 167l-5 47 32 10z"/><path fill="#AE8579" stroke="#AE8579" d="M4 224l-44 25 62 26z"/><path fill="#A5737F" stroke="#A5737F" d="M-40 249l39 42 23-16z"/><path fill="#D59975" stroke="#D59975" d="M-23 167l27 57 20-56z"/><path fill="#E8825F" stroke="#E8825F" d="M-43 49l42 46 26-62z"/><path fill="#E16E54" stroke="#E16E54" d="M-42 25l-1 24 68-16z"/><path fill="#E3574A" stroke="#E3574A" d="M17-17L-41-1l66 34z"/><path fill="#DF604E" stroke="#DF604E" d="M-41-1l-1 26 67 8z"/><path fill="#E49F74" stroke="#E49F74" d="M-2 143l-21 24 47 1z"/><path fill="#B48976" stroke="#B48976" d="M-28 214l-12 35 44-25z"/></g></svg>