<svg xmlns="http://www.w3.org/2000/svg" width="128" height="128" viewBox="0 0 128 128"><g fill="none" stroke-width="1.51"><path fill="#F5E58F" stroke="#F5E58F" d="M95 23l70 5 7-44z"/><path fill="#FAD787" stroke="#FAD787" d="M94-43l1 66 77-39z"/><path fill="#F6F3A3" stroke="#F6F3A3" d="M95 23l44 50 26-45z"/><path fill="#EFF9A6" stroke="#EFF9A6" d="M139 73l-12 12 17 12z"/><path fill="#E9F79E" stroke="#E9F79E" d="M127 85l1 46 16-34z"/><path fill="#E7F5A1" stroke="#E7F5A1" d="M127 85l-32 29 33 17z"/><path fill="#F8FBB2" stroke="#F8FBB2" d="M95 23l32 62 12-12z"/><path fill="#FBFDB7" stroke="#FBFDB7" d="M95 23L77 78l50 7z"/><path fill="#CCEAAE" stroke="#CCEAAE" d="M59 160l25 27 11-73z"/><path fill="#D1ECAA" stroke="#D1ECAA" d="M95 114l-11 73 44-56z"/><path fill="#F0F9A6" stroke="#F0F9A6" d="M77 98l18 16 32-29z"/><path fill="#F4FBAE" stroke="#F4FBAE" d="M77 78v20l50-13z"/><path fill="#FFD38D" stroke="#FFD38D" d="M50-44l-6 61 50-60z"/><path fill="#FEE095" stroke="#FEE095" d="M94-43L44 17l51 6z"/><path fill="#FEF5AE" stroke="#FEF5AE" d="M44 17l33 61 18-55z"/><path fill="#EEF8AB" stroke="#EEF8AB" d="M77 98l-41 19 59-3z"/><path fill="#E0F2AF" stroke="#E0F2AF" d="M36 117l23 43 36-46z"/><path fill="#FFF7B3" stroke="#FFF7B3" d="M44 17L25 56l52 22z"/><path fill="#F5FBAF" stroke="#F5FBAF" d="M36 117l41-19V78z"/><path fill="#F9FAB0" stroke="#F9FAB0" d="M25 56l11 61 41-39z"/><path fill="#FFD68B" stroke="#FFD68B" d="M4-7l40 24 6-61z"/><path fill="#DAECA9" stroke="#DAECA9" d="M36 117l-15 21 38 22z"/><path fill="#F8F3A4" stroke="#F8F3A4" d="M25 56l-65 31 76 30z"/><path fill="#FFEEA3" stroke="#FFEEA3" d="M0 39l25 17 19-39z"/><path fill="#FFE394" stroke="#FFE394" d="M4-7L0 39l44-22z"/><path fill="#EBEE9D" stroke="#EBEE9D" d="M-40 87l61 51 15-21z"/><path fill="#FFF2AA" stroke="#FFF2AA" d="M0 39l-40 48 65-31z"/><path fill="#DFE499" stroke="#DFE499" d="M-40 87l-2 87 63-36z"/><path fill="#FFE08E" stroke="#FFE08E" d="M-26 18L0 39 4-7z"/><path fill="#FFD280" stroke="#FFD280" d="M-34-25l8 43L4-7z"/></g></svg>